<svg xmlns="http://www.w3.org/2000/svg" viewBox="0 0 68.22 72.25"><defs><style>.cls-1{fill:#164a84;}.cls-2{fill:#e0225c;}.cls-3{fill:#ebb22b;}</style></defs><g id="Layer_2" data-name="Layer 2"><g id="Layer_3" data-name="Layer 3"><path class="cls-1" d="M62.84,15.7,37.31.87a6.58,6.58,0,0,0-6.54,0L5.24,15.7a6.63,6.63,0,0,0-3.3,5.7v2.08A3.43,3.43,0,0,0,.11,27.4a3.35,3.35,0,0,0,2.62,2.52,3.46,3.46,0,0,0,4.16-3.37,3.4,3.4,0,0,0-2-3.07V21.4A3.66,3.66,0,0,1,6.7,18.27L32.24,3.45a3.44,3.44,0,0,1,3.54,0L61.31,18.21a3.6,3.6,0,0,1,1.78,3.13L63,30.16a13.76,13.76,0,0,1-12.21,13.3l-.06-10.24a1.28,1.28,0,0,0-.61-1l-5.07-3a1.18,1.18,0,0,0-1.59.43l-1.84,2.94-3.48-2a.87.87,0,0,0-1.16.3l-.91,1.66a.86.86,0,0,0,.3,1.16l3.42,2-3.48,5.64-3.24-1.84a.88.88,0,0,0-1.16.31L31,41.37a.82.82,0,0,0,.3,1.17l3.12,1.84-1.78,2.87a1,1,0,0,0-.12.92,1.06,1.06,0,0,0,.61.74l5.56,3a.94.94,0,0,0,.55.12,1.44,1.44,0,0,0,.55-.12l9.78-5.39A16.7,16.7,0,0,0,66,30.28l.06-8.94A6.36,6.36,0,0,0,62.84,15.7ZM5.05,26.24a1.67,1.67,0,0,1-1.95,2,1.7,1.7,0,0,1-1.28-1.29,1.67,1.67,0,0,1,2-2A1.56,1.56,0,0,1,5.05,26.24Z"/><path class="cls-1" d="M64.61,42a3.41,3.41,0,0,0-1.46,6.49v2.39A3.66,3.66,0,0,1,61.38,54L35.84,68.76a3.65,3.65,0,0,1-3.54,0L6.7,54.06a3.59,3.59,0,0,1-1.77-3.13L5,42.05A13.85,13.85,0,0,1,16.84,28.81L17,39.11a1.27,1.27,0,0,0,.61,1l5.13,2.94a1,1,0,0,0,.61.18,1.2,1.2,0,0,0,1-.55L35,25a1,1,0,0,0,.12-.92,1.06,1.06,0,0,0-.61-.73l-5.56-2.94a1.25,1.25,0,0,0-1.16,0l-9.59,5.33A16.64,16.64,0,0,0,2.06,42L2,50.93a6.63,6.63,0,0,0,3.3,5.7L30.83,71.4a6.35,6.35,0,0,0,3.3.85,7.17,7.17,0,0,0,3.3-.85L63,56.63a6.63,6.63,0,0,0,3.3-5.7V48.54a3.39,3.39,0,0,0,2-3.06A3.72,3.72,0,0,0,64.61,42Zm0,5.08a1.66,1.66,0,1,1,1.65-1.65A1.65,1.65,0,0,1,64.61,47.07Z"/><path class="cls-2" d="M55.39,47.19v.74a1,1,0,0,1-.43.8L34.44,60.61a1.21,1.21,0,0,1-.43.12,1.16,1.16,0,0,1-.43-.12L13.18,49a.82.82,0,0,1-.43-.79V32A12,12,0,0,0,8.6,36v12.2a5.07,5.07,0,0,0,2.56,4.41L31.57,64.23a5.23,5.23,0,0,0,2.5.67,5.09,5.09,0,0,0,2.5-.67L57,52.4A5,5,0,0,0,59.54,48V45.17A17.34,17.34,0,0,1,55.39,47.19Z"/><path class="cls-3" d="M57,19.93,36.57,8.1a5.26,5.26,0,0,0-2.5-.67,5.06,5.06,0,0,0-2.5.67L11.1,19.93a5,5,0,0,0-2.5,4.41v2.82a20.43,20.43,0,0,1,4.15-2.09v-.73a1,1,0,0,1,.43-.8l20.4-11.82A1.16,1.16,0,0,1,34,11.6a.94.94,0,0,1,.43.12l20.4,11.82a.85.85,0,0,1,.43.8V40.27a12,12,0,0,0,4.15-4V24.28A4.75,4.75,0,0,0,57,19.93Z"/></g></g></svg>